<svg width="1209" height="284" viewBox="0 0 1209 284" fill="none" xmlns="http://www.w3.org/2000/svg">
<g clip-path="url(#clip0_651_15)">
<rect width="284" height="284" rx="142" fill="#0FC281"/>
<rect x="36.8008" y="36.801" width="210.398" height="210.398" rx="102.225" fill="#2EE5A3"/>
<rect x="74.7188" y="74.7173" width="134.937" height="134.937" rx="67.4686" fill="#5CFFC4"/>
</g>
<path d="M508.6 237.2L484.2 210.8C478.2 212.533 471.6 213.4 464.4 213.4C451.467 213.4 439.533 210.4 428.6 204.4C417.8 198.267 409.2 189.8 402.8 179C396.533 168.067 393.4 155.8 393.4 142.2C393.4 128.6 396.533 116.4 402.8 105.6C409.2 94.8 417.8 86.4 428.6 80.4C439.533 74.2667 451.467 71.2 464.4 71.2C477.467 71.2 489.4 74.2667 500.2 80.4C511.133 86.4 519.733 94.8 526 105.6C532.267 116.4 535.4 128.6 535.4 142.2C535.4 155 532.6 166.6 527 177C521.533 187.267 513.933 195.533 504.2 201.8L537.6 237.2H508.6ZM416.8 142.2C416.8 152.467 418.8 161.533 422.8 169.4C426.933 177.133 432.6 183.133 439.8 187.4C447 191.533 455.2 193.6 464.4 193.6C473.6 193.6 481.8 191.533 489 187.4C496.2 183.133 501.8 177.133 505.8 169.4C509.933 161.533 512 152.467 512 142.2C512 131.933 509.933 122.933 505.8 115.2C501.8 107.467 496.2 101.533 489 97.4C481.8 93.2667 473.6 91.2 464.4 91.2C455.2 91.2 447 93.2667 439.8 97.4C432.6 101.533 426.933 107.467 422.8 115.2C418.8 122.933 416.8 131.933 416.8 142.2ZM658.222 101.8V212H635.422V199C631.822 203.533 627.089 207.133 621.222 209.8C615.489 212.333 609.355 213.6 602.822 213.6C594.155 213.6 586.355 211.8 579.422 208.2C572.622 204.6 567.222 199.267 563.222 192.2C559.355 185.133 557.422 176.6 557.422 166.6V101.8H580.022V163.2C580.022 173.067 582.489 180.667 587.422 186C592.355 191.2 599.089 193.8 607.622 193.8C616.155 193.8 622.889 191.2 627.822 186C632.889 180.667 635.422 173.067 635.422 163.2V101.8H658.222ZM743.905 100C752.571 100 760.305 101.8 767.105 105.4C774.038 109 779.438 114.333 783.305 121.4C787.171 128.467 789.105 137 789.105 147V212H766.505V150.4C766.505 140.533 764.038 133 759.105 127.8C754.171 122.467 747.438 119.8 738.905 119.8C730.371 119.8 723.571 122.467 718.505 127.8C713.571 133 711.105 140.533 711.105 150.4V212H688.305V101.8H711.105V114.4C714.838 109.867 719.571 106.333 725.305 103.8C731.171 101.267 737.371 100 743.905 100ZM844.788 120.4V181.4C844.788 185.533 845.721 188.533 847.588 190.4C849.588 192.133 852.921 193 857.588 193H871.588V212H853.588C843.321 212 835.454 209.6 829.988 204.8C824.521 200 821.788 192.2 821.788 181.4V120.4H808.788V101.8H821.788V74.4H844.788V101.8H871.588V120.4H844.788ZM993.602 154.2C993.602 158.333 993.335 162.067 992.802 165.4H908.602C909.268 174.2 912.535 181.267 918.402 186.6C924.268 191.933 931.468 194.6 940.002 194.6C952.268 194.6 960.935 189.467 966.002 179.2H990.602C987.268 189.333 981.202 197.667 972.402 204.2C963.735 210.6 952.935 213.8 940.002 213.8C929.468 213.8 920.002 211.467 911.602 206.8C903.335 202 896.802 195.333 892.002 186.8C887.335 178.133 885.002 168.133 885.002 156.8C885.002 145.467 887.268 135.533 891.802 127C896.468 118.333 902.935 111.667 911.202 107C919.602 102.333 929.202 100 940.002 100C950.402 100 959.668 102.267 967.802 106.8C975.935 111.333 982.268 117.733 986.802 126C991.335 134.133 993.602 143.533 993.602 154.2ZM969.802 147C969.668 138.6 966.668 131.867 960.802 126.8C954.935 121.733 947.668 119.2 939.002 119.2C931.135 119.2 924.402 121.733 918.802 126.8C913.202 131.733 909.868 138.467 908.802 147H969.802ZM1149.44 100C1158.11 100 1165.84 101.8 1172.64 105.4C1179.57 109 1184.97 114.333 1188.84 121.4C1192.84 128.467 1194.84 137 1194.84 147V212H1172.24V150.4C1172.24 140.533 1169.77 133 1164.84 127.8C1159.91 122.467 1153.17 119.8 1144.64 119.8C1136.11 119.8 1129.31 122.467 1124.24 127.8C1119.31 133 1116.84 140.533 1116.84 150.4V212H1094.24V150.4C1094.24 140.533 1091.77 133 1086.84 127.8C1081.91 122.467 1075.17 119.8 1066.64 119.8C1058.11 119.8 1051.31 122.467 1046.24 127.8C1041.31 133 1038.84 140.533 1038.84 150.4V212H1016.04V101.8H1038.84V114.4C1042.57 109.867 1047.31 106.333 1053.04 103.8C1058.77 101.267 1064.91 100 1071.44 100C1080.24 100 1088.11 101.867 1095.04 105.6C1101.97 109.333 1107.31 114.733 1111.04 121.8C1114.37 115.133 1119.57 109.867 1126.64 106C1133.71 102 1141.31 100 1149.44 100Z" fill="white"/>
<defs>
<clipPath id="clip0_651_15">
<rect width="284" height="284" rx="142" fill="white"/>
</clipPath>
</defs>
</svg>
