<svg width="2048" height="290" viewBox="0 0 2048 290" fill="none" xmlns="http://www.w3.org/2000/svg">
<rect width="290" height="290" rx="145" fill="#0FC281"/>
<rect x="37.5785" y="37.5785" width="214.843" height="214.843" rx="104.385" fill="#2EE5A3"/>
<rect x="76.2958" y="76.2958" width="137.788" height="137.788" rx="68.894" fill="#5CFFC4"/>
<path d="M514.656 239.872L487.412 212.628C480.748 214.457 473.953 215.372 467.028 215.372C454.353 215.372 442.789 212.432 432.336 206.552C421.883 200.541 413.585 192.244 407.444 181.66C401.433 170.945 398.428 158.924 398.428 145.596C398.428 132.268 401.433 120.312 407.444 109.728C413.585 99.0133 421.883 90.716 432.336 84.836C442.789 78.8253 454.353 75.82 467.028 75.82C479.833 75.82 491.463 78.8253 501.916 84.836C512.369 90.716 520.601 98.948 526.612 109.532C532.623 120.116 535.628 132.137 535.628 145.596C535.628 158.663 532.753 170.423 527.004 180.876C521.255 191.329 513.349 199.561 503.288 205.572L537.784 239.872H514.656ZM416.656 145.596C416.656 156.441 418.812 165.98 423.124 174.212C427.567 182.444 433.577 188.781 441.156 193.224C448.865 197.667 457.489 199.888 467.028 199.888C476.567 199.888 485.125 197.667 492.704 193.224C500.413 188.781 506.424 182.444 510.736 174.212C515.179 165.98 517.4 156.441 517.4 145.596C517.4 134.62 515.179 125.081 510.736 116.98C506.424 108.748 500.479 102.411 492.9 97.968C485.321 93.5253 476.697 91.304 467.028 91.304C457.359 91.304 448.735 93.5253 441.156 97.968C433.577 102.411 427.567 108.748 423.124 116.98C418.812 125.081 416.656 134.62 416.656 145.596ZM654.813 106.592V214H636.977V198.124C633.58 203.612 628.81 207.924 622.669 211.06C616.658 214.065 609.994 215.568 602.677 215.568C594.314 215.568 586.801 213.869 580.137 210.472C573.473 206.944 568.181 201.717 564.261 194.792C560.472 187.867 558.577 179.439 558.577 169.508V106.592H576.217V167.156C576.217 177.74 578.896 185.907 584.253 191.656C589.61 197.275 596.928 200.084 606.205 200.084C615.744 200.084 623.257 197.144 628.745 191.264C634.233 185.384 636.977 176.825 636.977 165.588V106.592H654.813ZM737.26 104.632C750.327 104.632 760.911 108.617 769.012 116.588C777.113 124.428 781.164 135.796 781.164 150.692V214H763.524V153.24C763.524 142.525 760.845 134.359 755.488 128.74C750.131 122.991 742.813 120.116 733.536 120.116C724.128 120.116 716.615 123.056 710.996 128.936C705.508 134.816 702.764 143.375 702.764 154.612V214H684.928V106.592H702.764V121.88C706.292 116.392 711.061 112.145 717.072 109.14C723.213 106.135 729.943 104.632 737.26 104.632ZM832.055 121.292V184.6C832.055 189.827 833.166 193.551 835.387 195.772C837.608 197.863 841.463 198.908 846.951 198.908H860.083V214H844.011C834.08 214 826.632 211.713 821.667 207.14C816.702 202.567 814.219 195.053 814.219 184.6V121.292H800.303V106.592H814.219V79.544H832.055V106.592H860.083V121.292H832.055ZM979.694 156.18C979.694 159.577 979.498 163.171 979.106 166.96H893.258C893.911 177.544 897.504 185.841 904.038 191.852C910.702 197.732 918.738 200.672 928.146 200.672C935.855 200.672 942.258 198.908 947.354 195.38C952.58 191.721 956.239 186.887 958.33 180.876H977.538C974.663 191.199 968.914 199.627 960.29 206.16C951.666 212.563 940.951 215.764 928.146 215.764C917.954 215.764 908.807 213.477 900.706 208.904C892.735 204.331 886.463 197.863 881.89 189.5C877.316 181.007 875.03 171.207 875.03 160.1C875.03 148.993 877.251 139.259 881.694 130.896C886.136 122.533 892.343 116.131 900.314 111.688C908.415 107.115 917.692 104.828 928.146 104.828C938.338 104.828 947.354 107.049 955.194 111.492C963.034 115.935 969.044 122.076 973.226 129.916C977.538 137.625 979.694 146.38 979.694 156.18ZM961.27 152.456C961.27 145.661 959.767 139.847 956.762 135.012C953.756 130.047 949.64 126.323 944.414 123.84C939.318 121.227 933.634 119.92 927.362 119.92C918.346 119.92 910.636 122.795 904.234 128.544C897.962 134.293 894.368 142.264 893.454 152.456H961.27ZM1132.4 104.632C1140.76 104.632 1148.21 106.396 1154.74 109.924C1161.28 113.321 1166.44 118.483 1170.23 125.408C1174.02 132.333 1175.91 140.761 1175.91 150.692V214H1158.27V153.24C1158.27 142.525 1155.59 134.359 1150.24 128.74C1145.01 122.991 1137.89 120.116 1128.87 120.116C1119.6 120.116 1112.21 123.121 1106.72 129.132C1101.24 135.012 1098.49 143.571 1098.49 154.808V214H1080.85V153.24C1080.85 142.525 1078.17 134.359 1072.82 128.74C1067.59 122.991 1060.47 120.116 1051.45 120.116C1042.18 120.116 1034.79 123.121 1029.3 129.132C1023.82 135.012 1021.07 143.571 1021.07 154.808V214H1003.24V106.592H1021.07V122.076C1024.6 116.457 1029.3 112.145 1035.18 109.14C1041.2 106.135 1047.79 104.632 1054.98 104.632C1064 104.632 1071.97 106.657 1078.89 110.708C1085.82 114.759 1090.98 120.704 1094.38 128.544C1097.38 120.965 1102.35 115.085 1109.27 110.904C1116.2 106.723 1123.91 104.632 1132.4 104.632ZM1299.96 77.388C1314.85 77.388 1327.72 80.1973 1338.57 85.816C1349.54 91.304 1357.91 99.2093 1363.66 109.532C1369.54 119.855 1372.48 132.007 1372.48 145.988C1372.48 159.969 1369.54 172.121 1363.66 182.444C1357.91 192.636 1349.54 200.476 1338.57 205.964C1327.72 211.321 1314.85 214 1299.96 214H1257.42V77.388H1299.96ZM1299.96 199.3C1317.6 199.3 1331.05 194.661 1340.33 185.384C1349.61 175.976 1354.25 162.844 1354.25 145.988C1354.25 129.001 1349.54 115.739 1340.14 106.2C1330.86 96.6613 1317.47 91.892 1299.96 91.892H1275.26V199.3H1299.96ZM1442.85 215.764C1432.78 215.764 1423.64 213.477 1415.41 208.904C1407.3 204.331 1400.9 197.863 1396.2 189.5C1391.62 181.007 1389.34 171.207 1389.34 160.1C1389.34 149.124 1391.69 139.455 1396.39 131.092C1401.23 122.599 1407.76 116.131 1415.99 111.688C1424.23 107.115 1433.44 104.828 1443.63 104.828C1453.82 104.828 1463.03 107.115 1471.27 111.688C1479.5 116.131 1485.97 122.533 1490.67 130.896C1495.5 139.259 1497.92 148.993 1497.92 160.1C1497.92 171.207 1495.44 181.007 1490.47 189.5C1485.64 197.863 1479.04 204.331 1470.68 208.904C1462.32 213.477 1453.04 215.764 1442.85 215.764ZM1442.85 200.084C1449.25 200.084 1455.26 198.581 1460.88 195.576C1466.5 192.571 1471 188.063 1474.4 182.052C1477.93 176.041 1479.69 168.724 1479.69 160.1C1479.69 151.476 1478 144.159 1474.6 138.148C1471.2 132.137 1466.76 127.695 1461.27 124.82C1455.78 121.815 1449.84 120.312 1443.43 120.312C1436.9 120.312 1430.89 121.815 1425.4 124.82C1420.04 127.695 1415.73 132.137 1412.47 138.148C1409.2 144.159 1407.57 151.476 1407.57 160.1C1407.57 168.855 1409.13 176.237 1412.27 182.248C1415.54 188.259 1419.85 192.767 1425.21 195.772C1430.56 198.647 1436.44 200.084 1442.85 200.084ZM1514.71 160.1C1514.71 148.993 1516.93 139.324 1521.37 131.092C1525.82 122.729 1531.96 116.261 1539.8 111.688C1547.77 107.115 1556.85 104.828 1567.04 104.828C1580.24 104.828 1591.08 108.029 1599.58 114.432C1608.2 120.835 1613.89 129.72 1616.63 141.088H1597.42C1595.59 134.555 1592 129.393 1586.64 125.604C1581.41 121.815 1574.88 119.92 1567.04 119.92C1556.85 119.92 1548.62 123.448 1542.35 130.504C1536.07 137.429 1532.94 147.295 1532.94 160.1C1532.94 173.036 1536.07 183.032 1542.35 190.088C1548.62 197.144 1556.85 200.672 1567.04 200.672C1574.88 200.672 1581.41 198.843 1586.64 195.184C1591.87 191.525 1595.46 186.299 1597.42 179.504H1616.63C1613.75 190.48 1608.01 199.3 1599.38 205.964C1590.76 212.497 1579.98 215.764 1567.04 215.764C1556.85 215.764 1547.77 213.477 1539.8 208.904C1531.96 204.331 1525.82 197.863 1521.37 189.5C1516.93 181.137 1514.71 171.337 1514.71 160.1ZM1678.45 215.764C1670.22 215.764 1662.84 214.392 1656.3 211.648C1649.77 208.773 1644.61 204.853 1640.82 199.888C1637.03 194.792 1634.94 188.977 1634.55 182.444H1652.97C1653.49 187.801 1655.98 192.179 1660.42 195.576C1664.99 198.973 1670.94 200.672 1678.26 200.672C1685.05 200.672 1690.41 199.169 1694.33 196.164C1698.25 193.159 1700.21 189.369 1700.21 184.796C1700.21 180.092 1698.12 176.629 1693.94 174.408C1689.75 172.056 1683.29 169.769 1674.53 167.548C1666.56 165.457 1660.03 163.367 1654.93 161.276C1649.97 159.055 1645.65 155.853 1642 151.672C1638.47 147.36 1636.7 141.741 1636.7 134.816C1636.7 129.328 1638.34 124.297 1641.6 119.724C1644.87 115.151 1649.51 111.557 1655.52 108.944C1661.53 106.2 1668.39 104.828 1676.1 104.828C1687.99 104.828 1697.59 107.833 1704.91 113.844C1712.23 119.855 1716.15 128.087 1716.67 138.54H1698.84C1698.44 132.921 1696.16 128.413 1691.98 125.016C1687.93 121.619 1682.44 119.92 1675.51 119.92C1669.11 119.92 1664.01 121.292 1660.22 124.036C1656.43 126.78 1654.54 130.373 1654.54 134.816C1654.54 138.344 1655.65 141.284 1657.87 143.636C1660.22 145.857 1663.1 147.687 1666.5 149.124C1670.02 150.431 1674.86 151.933 1681 153.632C1688.71 155.723 1694.98 157.813 1699.82 159.904C1704.65 161.864 1708.77 164.869 1712.16 168.92C1715.69 172.971 1717.52 178.263 1717.65 184.796C1717.65 190.676 1716.02 195.968 1712.75 200.672C1709.49 205.376 1704.85 209.1 1698.84 211.844C1692.96 214.457 1686.16 215.764 1678.45 215.764Z" fill="#3B3B3B"/>
</svg>
