<svg width="2100" height="960" viewBox="0 0 2100 960" fill="none" xmlns="http://www.w3.org/2000/svg">
<rect width="2100" height="960" fill="#1A1A1A"/>
<rect x="465" y="268" width="290" height="290" rx="145" fill="#0FC281"/>
<rect x="502.579" y="305.579" width="214.843" height="214.843" rx="104.385" fill="#2EE5A3"/>
<rect x="541.296" y="344.296" width="137.788" height="137.788" rx="68.894" fill="#5CFFC4"/>
<path d="M957.117 507.872L929.873 480.628C923.209 482.457 916.414 483.372 909.489 483.372C896.814 483.372 885.25 480.432 874.797 474.552C864.344 468.541 856.046 460.244 849.905 449.66C843.894 438.945 840.889 426.924 840.889 413.596C840.889 400.268 843.894 388.312 849.905 377.728C856.046 367.013 864.344 358.716 874.797 352.836C885.25 346.825 896.814 343.82 909.489 343.82C922.294 343.82 933.924 346.825 944.377 352.836C954.83 358.716 963.062 366.948 969.073 377.532C975.084 388.116 978.089 400.137 978.089 413.596C978.089 426.663 975.214 438.423 969.465 448.876C963.716 459.329 955.81 467.561 945.749 473.572L980.245 507.872H957.117ZM859.117 413.596C859.117 424.441 861.273 433.98 865.585 442.212C870.028 450.444 876.038 456.781 883.617 461.224C891.326 465.667 899.95 467.888 909.489 467.888C919.028 467.888 927.586 465.667 935.165 461.224C942.874 456.781 948.885 450.444 953.197 442.212C957.64 433.98 959.861 424.441 959.861 413.596C959.861 402.62 957.64 393.081 953.197 384.98C948.885 376.748 942.94 370.411 935.361 365.968C927.782 361.525 919.158 359.304 909.489 359.304C899.82 359.304 891.196 361.525 883.617 365.968C876.038 370.411 870.028 376.748 865.585 384.98C861.273 393.081 859.117 402.62 859.117 413.596ZM1097.27 374.592V482H1079.44V466.124C1076.04 471.612 1071.27 475.924 1065.13 479.06C1059.12 482.065 1052.46 483.568 1045.14 483.568C1036.78 483.568 1029.26 481.869 1022.6 478.472C1015.93 474.944 1010.64 469.717 1006.72 462.792C1002.93 455.867 1001.04 447.439 1001.04 437.508V374.592H1018.68V435.156C1018.68 445.74 1021.36 453.907 1026.71 459.656C1032.07 465.275 1039.39 468.084 1048.67 468.084C1058.2 468.084 1065.72 465.144 1071.21 459.264C1076.69 453.384 1079.44 444.825 1079.44 433.588V374.592H1097.27ZM1179.72 372.632C1192.79 372.632 1203.37 376.617 1211.47 384.588C1219.57 392.428 1223.62 403.796 1223.62 418.692V482H1205.98V421.24C1205.98 410.525 1203.31 402.359 1197.95 396.74C1192.59 390.991 1185.27 388.116 1176 388.116C1166.59 388.116 1159.08 391.056 1153.46 396.936C1147.97 402.816 1145.22 411.375 1145.22 422.612V482H1127.39V374.592H1145.22V389.88C1148.75 384.392 1153.52 380.145 1159.53 377.14C1165.67 374.135 1172.4 372.632 1179.72 372.632ZM1274.52 389.292V452.6C1274.52 457.827 1275.63 461.551 1277.85 463.772C1280.07 465.863 1283.92 466.908 1289.41 466.908H1302.54V482H1286.47C1276.54 482 1269.09 479.713 1264.13 475.14C1259.16 470.567 1256.68 463.053 1256.68 452.6V389.292H1242.76V374.592H1256.68V347.544H1274.52V374.592H1302.54V389.292H1274.52ZM1422.15 424.18C1422.15 427.577 1421.96 431.171 1421.57 434.96H1335.72C1336.37 445.544 1339.97 453.841 1346.5 459.852C1353.16 465.732 1361.2 468.672 1370.61 468.672C1378.32 468.672 1384.72 466.908 1389.81 463.38C1395.04 459.721 1398.7 454.887 1400.79 448.876H1420C1417.12 459.199 1411.37 467.627 1402.75 474.16C1394.13 480.563 1383.41 483.764 1370.61 483.764C1360.41 483.764 1351.27 481.477 1343.17 476.904C1335.2 472.331 1328.92 465.863 1324.35 457.5C1319.78 449.007 1317.49 439.207 1317.49 428.1C1317.49 416.993 1319.71 407.259 1324.15 398.896C1328.6 390.533 1334.8 384.131 1342.77 379.688C1350.88 375.115 1360.15 372.828 1370.61 372.828C1380.8 372.828 1389.81 375.049 1397.65 379.492C1405.49 383.935 1411.51 390.076 1415.69 397.916C1420 405.625 1422.15 414.38 1422.15 424.18ZM1403.73 420.456C1403.73 413.661 1402.23 407.847 1399.22 403.012C1396.22 398.047 1392.1 394.323 1386.87 391.84C1381.78 389.227 1376.09 387.92 1369.82 387.92C1360.81 387.92 1353.1 390.795 1346.69 396.544C1340.42 402.293 1336.83 410.264 1335.91 420.456H1403.73ZM1574.86 372.632C1583.22 372.632 1590.67 374.396 1597.21 377.924C1603.74 381.321 1608.9 386.483 1612.69 393.408C1616.48 400.333 1618.37 408.761 1618.37 418.692V482H1600.73V421.24C1600.73 410.525 1598.05 402.359 1592.7 396.74C1587.47 390.991 1580.35 388.116 1571.33 388.116C1562.06 388.116 1554.67 391.121 1549.19 397.132C1543.7 403.012 1540.95 411.571 1540.95 422.808V482H1523.31V421.24C1523.31 410.525 1520.63 402.359 1515.28 396.74C1510.05 390.991 1502.93 388.116 1493.91 388.116C1484.64 388.116 1477.25 391.121 1471.77 397.132C1466.28 403.012 1463.53 411.571 1463.53 422.808V482H1445.7V374.592H1463.53V390.076C1467.06 384.457 1471.77 380.145 1477.65 377.14C1483.66 374.135 1490.25 372.632 1497.44 372.632C1506.46 372.632 1514.43 374.657 1521.35 378.708C1528.28 382.759 1533.44 388.704 1536.84 396.544C1539.84 388.965 1544.81 383.085 1551.73 378.904C1558.66 374.723 1566.37 372.632 1574.86 372.632Z" fill="white"/>
<path d="M607.483 636.544V640.096H592.939V651.376H604.747V654.928H592.939V670H588.571V636.544H607.483ZM624.231 670.432C621.767 670.432 619.527 669.872 617.511 668.752C615.527 667.632 613.959 666.048 612.807 664C611.687 661.92 611.127 659.52 611.127 656.8C611.127 654.112 611.703 651.744 612.855 649.696C614.039 647.616 615.639 646.032 617.655 644.944C619.671 643.824 621.927 643.264 624.423 643.264C626.919 643.264 629.175 643.824 631.191 644.944C633.207 646.032 634.791 647.6 635.943 649.648C637.127 651.696 637.719 654.08 637.719 656.8C637.719 659.52 637.111 661.92 635.895 664C634.711 666.048 633.095 667.632 631.047 668.752C628.999 669.872 626.727 670.432 624.231 670.432ZM624.231 666.592C625.799 666.592 627.271 666.224 628.647 665.488C630.023 664.752 631.127 663.648 631.959 662.176C632.823 660.704 633.255 658.912 633.255 656.8C633.255 654.688 632.839 652.896 632.007 651.424C631.175 649.952 630.087 648.864 628.743 648.16C627.399 647.424 625.943 647.056 624.375 647.056C622.775 647.056 621.303 647.424 619.959 648.16C618.647 648.864 617.591 649.952 616.791 651.424C615.991 652.896 615.591 654.688 615.591 656.8C615.591 658.944 615.975 660.752 616.743 662.224C617.543 663.696 618.599 664.8 619.911 665.536C621.223 666.24 622.663 666.592 624.231 666.592ZM647.83 647.968C648.598 646.464 649.686 645.296 651.094 644.464C652.534 643.632 654.278 643.216 656.326 643.216V647.728H655.174C650.278 647.728 647.83 650.384 647.83 655.696V670H643.462V643.696H647.83V647.968ZM679.493 647.296V662.8C679.493 664.08 679.765 664.992 680.309 665.536C680.853 666.048 681.797 666.304 683.141 666.304H686.357V670H682.421C679.989 670 678.165 669.44 676.949 668.32C675.733 667.2 675.125 665.36 675.125 662.8V647.296H671.717V643.696H675.125V637.072H679.493V643.696H686.357V647.296H679.493ZM704.705 643.216C706.689 643.216 708.481 643.648 710.081 644.512C711.681 645.344 712.929 646.608 713.825 648.304C714.753 650 715.217 652.064 715.217 654.496V670H710.897V655.12C710.897 652.496 710.241 650.496 708.929 649.12C707.617 647.712 705.825 647.008 703.553 647.008C701.249 647.008 699.409 647.728 698.033 649.168C696.689 650.608 696.017 652.704 696.017 655.456V670H691.649V634.48H696.017V647.44C696.881 646.096 698.065 645.056 699.569 644.32C701.105 643.584 702.817 643.216 704.705 643.216ZM746.352 655.84C746.352 656.672 746.304 657.552 746.208 658.48H725.184C725.344 661.072 726.224 663.104 727.824 664.576C729.456 666.016 731.424 666.736 733.728 666.736C735.616 666.736 737.184 666.304 738.432 665.44C739.712 664.544 740.608 663.36 741.12 661.888H745.824C745.12 664.416 743.712 666.48 741.6 668.08C739.488 669.648 736.864 670.432 733.728 670.432C731.232 670.432 728.992 669.872 727.008 668.752C725.056 667.632 723.52 666.048 722.4 664C721.28 661.92 720.72 659.52 720.72 656.8C720.72 654.08 721.264 651.696 722.352 649.648C723.44 647.6 724.96 646.032 726.912 644.944C728.896 643.824 731.168 643.264 733.728 643.264C736.224 643.264 738.432 643.808 740.352 644.896C742.272 645.984 743.744 647.488 744.768 649.408C745.824 651.296 746.352 653.44 746.352 655.84ZM741.84 654.928C741.84 653.264 741.472 651.84 740.736 650.656C740 649.44 738.992 648.528 737.712 647.92C736.464 647.28 735.072 646.96 733.536 646.96C731.328 646.96 729.44 647.664 727.872 649.072C726.336 650.48 725.456 652.432 725.232 654.928H741.84ZM763.283 656.8C763.283 654.08 763.827 651.712 764.915 649.696C766.003 647.648 767.507 646.064 769.427 644.944C771.379 643.824 773.603 643.264 776.099 643.264C779.331 643.264 781.987 644.048 784.067 645.616C786.179 647.184 787.571 649.36 788.243 652.144H783.539C783.091 650.544 782.211 649.28 780.899 648.352C779.619 647.424 778.019 646.96 776.099 646.96C773.603 646.96 771.587 647.824 770.051 649.552C768.515 651.248 767.747 653.664 767.747 656.8C767.747 659.968 768.515 662.416 770.051 664.144C771.587 665.872 773.603 666.736 776.099 666.736C778.019 666.736 779.619 666.288 780.899 665.392C782.179 664.496 783.059 663.216 783.539 661.552H788.243C787.539 664.24 786.131 666.4 784.019 668.032C781.907 669.632 779.267 670.432 776.099 670.432C773.603 670.432 771.379 669.872 769.427 668.752C767.507 667.632 766.003 666.048 764.915 664C763.827 661.952 763.283 659.552 763.283 656.8ZM805.543 670.432C803.079 670.432 800.839 669.872 798.823 668.752C796.839 667.632 795.271 666.048 794.119 664C792.999 661.92 792.439 659.52 792.439 656.8C792.439 654.112 793.015 651.744 794.167 649.696C795.351 647.616 796.951 646.032 798.967 644.944C800.983 643.824 803.239 643.264 805.735 643.264C808.231 643.264 810.487 643.824 812.503 644.944C814.519 646.032 816.103 647.6 817.255 649.648C818.439 651.696 819.031 654.08 819.031 656.8C819.031 659.52 818.423 661.92 817.207 664C816.023 666.048 814.407 667.632 812.359 668.752C810.311 669.872 808.039 670.432 805.543 670.432ZM805.543 666.592C807.111 666.592 808.583 666.224 809.959 665.488C811.335 664.752 812.439 663.648 813.271 662.176C814.135 660.704 814.567 658.912 814.567 656.8C814.567 654.688 814.151 652.896 813.319 651.424C812.487 649.952 811.399 648.864 810.055 648.16C808.711 647.424 807.255 647.056 805.687 647.056C804.087 647.056 802.615 647.424 801.271 648.16C799.959 648.864 798.903 649.952 798.103 651.424C797.303 652.896 796.903 654.688 796.903 656.8C796.903 658.944 797.287 660.752 798.055 662.224C798.855 663.696 799.911 664.8 801.223 665.536C802.535 666.24 803.975 666.592 805.543 666.592ZM856.406 643.216C858.454 643.216 860.278 643.648 861.878 644.512C863.478 645.344 864.742 646.608 865.67 648.304C866.598 650 867.062 652.064 867.062 654.496V670H862.742V655.12C862.742 652.496 862.086 650.496 860.774 649.12C859.494 647.712 857.75 647.008 855.542 647.008C853.27 647.008 851.462 647.744 850.118 649.216C848.774 650.656 848.102 652.752 848.102 655.504V670H843.782V655.12C843.782 652.496 843.126 650.496 841.814 649.12C840.534 647.712 838.79 647.008 836.582 647.008C834.31 647.008 832.502 647.744 831.158 649.216C829.814 650.656 829.142 652.752 829.142 655.504V670H824.774V643.696H829.142V647.488C830.006 646.112 831.158 645.056 832.598 644.32C834.07 643.584 835.686 643.216 837.446 643.216C839.654 643.216 841.606 643.712 843.302 644.704C844.998 645.696 846.262 647.152 847.094 649.072C847.83 647.216 849.046 645.776 850.742 644.752C852.438 643.728 854.326 643.216 856.406 643.216ZM905.859 643.216C907.907 643.216 909.731 643.648 911.331 644.512C912.931 645.344 914.195 646.608 915.123 648.304C916.051 650 916.515 652.064 916.515 654.496V670H912.195V655.12C912.195 652.496 911.539 650.496 910.227 649.12C908.947 647.712 907.203 647.008 904.995 647.008C902.723 647.008 900.915 647.744 899.571 649.216C898.227 650.656 897.555 652.752 897.555 655.504V670H893.235V655.12C893.235 652.496 892.579 650.496 891.267 649.12C889.987 647.712 888.243 647.008 886.035 647.008C883.763 647.008 881.955 647.744 880.611 649.216C879.267 650.656 878.595 652.752 878.595 655.504V670H874.227V643.696H878.595V647.488C879.459 646.112 880.611 645.056 882.051 644.32C883.523 643.584 885.139 643.216 886.899 643.216C889.107 643.216 891.059 643.712 892.755 644.704C894.451 645.696 895.715 647.152 896.547 649.072C897.283 647.216 898.499 645.776 900.195 644.752C901.891 643.728 903.779 643.216 905.859 643.216ZM947.008 643.696V670H942.64V666.112C941.808 667.456 940.64 668.512 939.136 669.28C937.664 670.016 936.032 670.384 934.24 670.384C932.192 670.384 930.352 669.968 928.72 669.136C927.088 668.272 925.792 666.992 924.832 665.296C923.904 663.6 923.44 661.536 923.44 659.104V643.696H927.76V658.528C927.76 661.12 928.416 663.12 929.728 664.528C931.04 665.904 932.832 666.592 935.104 666.592C937.44 666.592 939.28 665.872 940.624 664.432C941.968 662.992 942.64 660.896 942.64 658.144V643.696H947.008ZM967.2 643.216C970.4 643.216 972.992 644.192 974.976 646.144C976.96 648.064 977.952 650.848 977.952 654.496V670H973.632V655.12C973.632 652.496 972.976 650.496 971.664 649.12C970.352 647.712 968.56 647.008 966.288 647.008C963.984 647.008 962.144 647.728 960.768 649.168C959.424 650.608 958.752 652.704 958.752 655.456V670H954.384V643.696H958.752V647.44C959.616 646.096 960.784 645.056 962.256 644.32C963.76 643.584 965.408 643.216 967.2 643.216ZM987.343 639.424C986.511 639.424 985.807 639.136 985.231 638.56C984.655 637.984 984.367 637.28 984.367 636.448C984.367 635.616 984.655 634.912 985.231 634.336C985.807 633.76 986.511 633.472 987.343 633.472C988.143 633.472 988.815 633.76 989.359 634.336C989.935 634.912 990.223 635.616 990.223 636.448C990.223 637.28 989.935 637.984 989.359 638.56C988.815 639.136 988.143 639.424 987.343 639.424ZM989.455 643.696V670H985.087V643.696H989.455ZM1002.23 647.296V662.8C1002.23 664.08 1002.5 664.992 1003.04 665.536C1003.59 666.048 1004.53 666.304 1005.88 666.304H1009.09V670H1005.16C1002.72 670 1000.9 669.44 999.683 668.32C998.467 667.2 997.859 665.36 997.859 662.8V647.296H994.451V643.696H997.859V637.072H1002.23V643.696H1009.09V647.296H1002.23ZM1037.04 643.696L1021.2 682.384H1016.69L1021.87 669.712L1011.26 643.696H1016.11L1024.37 665.008L1032.53 643.696H1037.04ZM1045.94 663.952L1040.57 676.864H1037.64L1041.14 663.952H1045.94ZM1069.12 647.488C1070.05 646.208 1071.31 645.168 1072.91 644.368C1074.54 643.536 1076.35 643.12 1078.33 643.12C1080.67 643.12 1082.78 643.68 1084.67 644.8C1086.56 645.92 1088.05 647.52 1089.13 649.6C1090.22 651.648 1090.77 654 1090.77 656.656C1090.77 659.312 1090.22 661.696 1089.13 663.808C1088.05 665.888 1086.54 667.52 1084.62 668.704C1082.73 669.856 1080.64 670.432 1078.33 670.432C1076.29 670.432 1074.46 670.032 1072.86 669.232C1071.29 668.432 1070.05 667.408 1069.12 666.16V670H1063.65V634.48H1069.12V647.488ZM1085.2 656.656C1085.2 654.832 1084.81 653.264 1084.05 651.952C1083.31 650.608 1082.32 649.6 1081.07 648.928C1079.85 648.224 1078.54 647.872 1077.13 647.872C1075.76 647.872 1074.45 648.224 1073.2 648.928C1071.98 649.632 1070.99 650.656 1070.22 652C1069.49 653.344 1069.12 654.928 1069.12 656.752C1069.12 658.576 1069.49 660.176 1070.22 661.552C1070.99 662.896 1071.98 663.92 1073.2 664.624C1074.45 665.328 1075.76 665.68 1077.13 665.68C1078.54 665.68 1079.85 665.328 1081.07 664.624C1082.32 663.888 1083.31 662.832 1084.05 661.456C1084.81 660.08 1085.2 658.48 1085.2 656.656ZM1119.99 643.552L1103.76 682.432H1098.1L1103.47 669.568L1093.06 643.552H1099.15L1106.59 663.712L1114.32 643.552H1119.99ZM1142.97 648.016V662.656C1142.97 663.648 1143.19 664.368 1143.64 664.816C1144.12 665.232 1144.92 665.44 1146.04 665.44H1149.4V670H1145.08C1142.62 670 1140.73 669.424 1139.42 668.272C1138.1 667.12 1137.45 665.248 1137.45 662.656V648.016H1134.33V643.552H1137.45V636.976H1142.97V643.552H1149.4V648.016H1142.97ZM1168.12 643.12C1170.14 643.12 1171.93 643.552 1173.5 644.416C1175.1 645.28 1176.35 646.56 1177.24 648.256C1178.17 649.952 1178.64 652 1178.64 654.4V670H1173.21V655.216C1173.21 652.848 1172.62 651.04 1171.44 649.792C1170.25 648.512 1168.64 647.872 1166.59 647.872C1164.54 647.872 1162.91 648.512 1161.69 649.792C1160.51 651.04 1159.92 652.848 1159.92 655.216V670H1154.44V634.48H1159.92V646.624C1160.84 645.504 1162.01 644.64 1163.42 644.032C1164.86 643.424 1166.43 643.12 1168.12 643.12ZM1209.86 656.128C1209.86 657.12 1209.79 658.016 1209.66 658.816H1189.46C1189.62 660.928 1190.4 662.624 1191.81 663.904C1193.22 665.184 1194.94 665.824 1196.99 665.824C1199.94 665.824 1202.02 664.592 1203.23 662.128H1209.14C1208.34 664.56 1206.88 666.56 1204.77 668.128C1202.69 669.664 1200.1 670.432 1196.99 670.432C1194.46 670.432 1192.19 669.872 1190.18 668.752C1188.19 667.6 1186.62 666 1185.47 663.952C1184.35 661.872 1183.79 659.472 1183.79 656.752C1183.79 654.032 1184.34 651.648 1185.42 649.6C1186.54 647.52 1188.1 645.92 1190.08 644.8C1192.1 643.68 1194.4 643.12 1196.99 643.12C1199.49 643.12 1201.71 643.664 1203.66 644.752C1205.62 645.84 1207.14 647.376 1208.22 649.36C1209.31 651.312 1209.86 653.568 1209.86 656.128ZM1204.14 654.4C1204.11 652.384 1203.39 650.768 1201.98 649.552C1200.58 648.336 1198.83 647.728 1196.75 647.728C1194.86 647.728 1193.25 648.336 1191.9 649.552C1190.56 650.736 1189.76 652.352 1189.5 654.4H1204.14ZM1225.89 656.752C1225.89 654.032 1226.43 651.648 1227.52 649.6C1228.64 647.52 1230.17 645.92 1232.13 644.8C1234.08 643.68 1236.32 643.12 1238.85 643.12C1242.05 643.12 1244.69 643.888 1246.77 645.424C1248.88 646.928 1250.3 649.088 1251.04 651.904H1245.13C1244.65 650.592 1243.89 649.568 1242.83 648.832C1241.77 648.096 1240.45 647.728 1238.85 647.728C1236.61 647.728 1234.81 648.528 1233.47 650.128C1232.16 651.696 1231.5 653.904 1231.5 656.752C1231.5 659.6 1232.16 661.824 1233.47 663.424C1234.81 665.024 1236.61 665.824 1238.85 665.824C1242.01 665.824 1244.11 664.432 1245.13 661.648H1251.04C1250.27 664.336 1248.83 666.48 1246.72 668.08C1244.61 669.648 1241.98 670.432 1238.85 670.432C1236.32 670.432 1234.08 669.872 1232.13 668.752C1230.17 667.6 1228.64 666 1227.52 663.952C1226.43 661.872 1225.89 659.472 1225.89 656.752ZM1267.96 670.432C1265.47 670.432 1263.21 669.872 1261.19 668.752C1259.18 667.6 1257.59 666 1256.44 663.952C1255.29 661.872 1254.71 659.472 1254.71 656.752C1254.71 654.064 1255.31 651.68 1256.49 649.6C1257.67 647.52 1259.29 645.92 1261.34 644.8C1263.39 643.68 1265.67 643.12 1268.2 643.12C1270.73 643.12 1273.02 643.68 1275.07 644.8C1277.11 645.92 1278.73 647.52 1279.91 649.6C1281.1 651.68 1281.69 654.064 1281.69 656.752C1281.69 659.44 1281.08 661.824 1279.87 663.904C1278.65 665.984 1276.99 667.6 1274.87 668.752C1272.79 669.872 1270.49 670.432 1267.96 670.432ZM1267.96 665.68C1269.37 665.68 1270.68 665.344 1271.9 664.672C1273.15 664 1274.15 662.992 1274.92 661.648C1275.69 660.304 1276.07 658.672 1276.07 656.752C1276.07 654.832 1275.71 653.216 1274.97 651.904C1274.23 650.56 1273.26 649.552 1272.04 648.88C1270.83 648.208 1269.51 647.872 1268.11 647.872C1266.7 647.872 1265.39 648.208 1264.17 648.88C1262.99 649.552 1262.04 650.56 1261.34 651.904C1260.63 653.216 1260.28 654.832 1260.28 656.752C1260.28 659.6 1261 661.808 1262.44 663.376C1263.91 664.912 1265.75 665.68 1267.96 665.68ZM1319.12 643.12C1321.2 643.12 1323.05 643.552 1324.68 644.416C1326.35 645.28 1327.64 646.56 1328.57 648.256C1329.53 649.952 1330.01 652 1330.01 654.4V670H1324.59V655.216C1324.59 652.848 1324 651.04 1322.81 649.792C1321.63 648.512 1320.01 647.872 1317.96 647.872C1315.92 647.872 1314.28 648.512 1313.07 649.792C1311.88 651.04 1311.29 652.848 1311.29 655.216V670H1305.87V655.216C1305.87 652.848 1305.28 651.04 1304.09 649.792C1302.91 648.512 1301.29 647.872 1299.24 647.872C1297.2 647.872 1295.56 648.512 1294.35 649.792C1293.16 651.04 1292.57 652.848 1292.57 655.216V670H1287.1V643.552H1292.57V646.576C1293.47 645.488 1294.6 644.64 1295.98 644.032C1297.36 643.424 1298.83 643.12 1300.4 643.12C1302.51 643.12 1304.4 643.568 1306.06 644.464C1307.72 645.36 1309 646.656 1309.9 648.352C1310.7 646.752 1311.95 645.488 1313.64 644.56C1315.34 643.6 1317.16 643.12 1319.12 643.12ZM1368.99 643.12C1371.07 643.12 1372.93 643.552 1374.56 644.416C1376.22 645.28 1377.52 646.56 1378.45 648.256C1379.41 649.952 1379.89 652 1379.89 654.4V670H1374.46V655.216C1374.46 652.848 1373.87 651.04 1372.69 649.792C1371.5 648.512 1369.89 647.872 1367.84 647.872C1365.79 647.872 1364.16 648.512 1362.94 649.792C1361.76 651.04 1361.17 652.848 1361.17 655.216V670H1355.74V655.216C1355.74 652.848 1355.15 651.04 1353.97 649.792C1352.78 648.512 1351.17 647.872 1349.12 647.872C1347.07 647.872 1345.44 648.512 1344.22 649.792C1343.04 651.04 1342.45 652.848 1342.45 655.216V670H1336.98V643.552H1342.45V646.576C1343.34 645.488 1344.48 644.64 1345.86 644.032C1347.23 643.424 1348.7 643.12 1350.27 643.12C1352.38 643.12 1354.27 643.568 1355.94 644.464C1357.6 645.36 1358.88 646.656 1359.78 648.352C1360.58 646.752 1361.82 645.488 1363.52 644.56C1365.22 643.6 1367.04 643.12 1368.99 643.12ZM1410.8 643.552V670H1405.33V666.88C1404.47 667.968 1403.33 668.832 1401.92 669.472C1400.55 670.08 1399.07 670.384 1397.51 670.384C1395.43 670.384 1393.55 669.952 1391.89 669.088C1390.26 668.224 1388.96 666.944 1388 665.248C1387.07 663.552 1386.61 661.504 1386.61 659.104V643.552H1392.03V658.288C1392.03 660.656 1392.63 662.48 1393.81 663.76C1394.99 665.008 1396.61 665.632 1398.66 665.632C1400.71 665.632 1402.32 665.008 1403.51 663.76C1404.72 662.48 1405.33 660.656 1405.33 658.288V643.552H1410.8ZM1431.37 643.12C1433.45 643.12 1435.3 643.552 1436.93 644.416C1438.6 645.28 1439.89 646.56 1440.82 648.256C1441.75 649.952 1442.21 652 1442.21 654.4V670H1436.79V655.216C1436.79 652.848 1436.2 651.04 1435.01 649.792C1433.83 648.512 1432.21 647.872 1430.17 647.872C1428.12 647.872 1426.49 648.512 1425.27 649.792C1424.09 651.04 1423.49 652.848 1423.49 655.216V670H1418.02V643.552H1423.49V646.576C1424.39 645.488 1425.53 644.64 1426.9 644.032C1428.31 643.424 1429.8 643.12 1431.37 643.12ZM1451.98 640.048C1450.99 640.048 1450.15 639.712 1449.48 639.04C1448.81 638.368 1448.47 637.536 1448.47 636.544C1448.47 635.552 1448.81 634.72 1449.48 634.048C1450.15 633.376 1450.99 633.04 1451.98 633.04C1452.94 633.04 1453.75 633.376 1454.43 634.048C1455.1 634.72 1455.43 635.552 1455.43 636.544C1455.43 637.536 1455.1 638.368 1454.43 639.04C1453.75 639.712 1452.94 640.048 1451.98 640.048ZM1454.67 643.552V670H1449.19V643.552H1454.67ZM1468.23 648.016V662.656C1468.23 663.648 1468.46 664.368 1468.91 664.816C1469.39 665.232 1470.19 665.44 1471.31 665.44H1474.67V670H1470.35C1467.88 670 1465.99 669.424 1464.68 668.272C1463.37 667.12 1462.71 665.248 1462.71 662.656V648.016H1459.59V643.552H1462.71V636.976H1468.23V643.552H1474.67V648.016H1468.23ZM1503.52 643.552L1487.29 682.432H1481.63L1487.01 669.568L1476.59 643.552H1482.69L1490.13 663.712L1497.85 643.552H1503.52ZM1509.13 670.288C1508.3 670.288 1507.6 670 1507.02 669.424C1506.45 668.848 1506.16 668.144 1506.16 667.312C1506.16 666.48 1506.45 665.776 1507.02 665.2C1507.6 664.624 1508.3 664.336 1509.13 664.336C1509.93 664.336 1510.61 664.624 1511.15 665.2C1511.73 665.776 1512.01 666.48 1512.01 667.312C1512.01 668.144 1511.73 668.848 1511.15 669.424C1510.61 670 1509.93 670.288 1509.13 670.288Z" fill="white"/>
</svg>
